<svg width="81" height="81" viewBox="0 0 81 81" fill="none" xmlns="http://www.w3.org/2000/svg">
<path fill-rule="evenodd" clip-rule="evenodd" d="M40.5 80C62.3152 80 80 62.3152 80 40.5C80 18.6848 62.3152 1 40.5 1C18.6848 1 1 18.6848 1 40.5C1 62.3152 18.6848 80 40.5 80ZM40.5 81C62.8675 81 81 62.8675 81 40.5C81 18.1325 62.8675 0 40.5 0C18.1325 0 0 18.1325 0 40.5C0 62.8675 18.1325 81 40.5 81Z" fill="#636677"/>
<path fill-rule="evenodd" clip-rule="evenodd" d="M24.8211 37.696C25.0942 37.6552 25.3486 37.8436 25.3894 38.1167L27.377 51.44C27.4789 51.8655 27.8594 52.1667 28.2984 52.1667H39.0818C39.3579 52.1667 39.5818 52.3905 39.5818 52.6667C39.5818 52.9428 39.3579 53.1667 39.0818 53.1667H28.2984C27.3854 53.1667 26.5951 52.5327 26.3972 51.6414C26.3947 51.63 26.3925 51.6184 26.3908 51.6068L24.4003 38.2643C24.3596 37.9912 24.5479 37.7367 24.8211 37.696Z" fill="#636677"/>
<path fill-rule="evenodd" clip-rule="evenodd" d="M33.0813 32.7618C33.0813 32.4857 33.3052 32.2618 33.5813 32.2618H44.8003C45.0765 32.2618 45.3003 32.4857 45.3003 32.7618C45.3003 33.038 45.0765 33.2618 44.8003 33.2618H33.5813C33.3052 33.2618 33.0813 33.038 33.0813 32.7618Z" fill="#636677"/>
<path fill-rule="evenodd" clip-rule="evenodd" d="M33.934 23.2448C34.1932 23.3399 34.3264 23.6271 34.2313 23.8864L30.2503 34.7435C30.1553 35.0028 29.868 35.1359 29.6088 35.0408C29.3495 34.9458 29.2164 34.6585 29.3115 34.3993L33.2924 23.5421C33.3875 23.2829 33.6747 23.1497 33.934 23.2448Z" fill="#636677"/>
<path fill-rule="evenodd" clip-rule="evenodd" d="M44.4469 23.2448C44.7062 23.1497 44.9934 23.2829 45.0885 23.5421L49.0694 34.3993C49.1645 34.6585 49.0314 34.9458 48.7721 35.0408C48.5128 35.1359 48.2256 35.0028 48.1305 34.7435L44.1496 23.8864C44.0545 23.6271 44.1876 23.3399 44.4469 23.2448Z" fill="#636677"/>
<path fill-rule="evenodd" clip-rule="evenodd" d="M24.3524 33.2618C23.8291 33.2618 23.4048 33.6862 23.4048 34.2095V36.9237C23.4048 37.475 23.8224 37.7977 24.242 37.7027C24.2782 37.6945 24.3153 37.6904 24.3524 37.6904H54.0286C54.0657 37.6904 54.1028 37.6945 54.139 37.7027C54.5586 37.7977 54.9762 37.475 54.9762 36.9237V34.2095C54.9762 33.6862 54.5519 33.2618 54.0286 33.2618H51.1334C50.8572 33.2618 50.6334 33.038 50.6334 32.7618C50.6334 32.4857 50.8572 32.2618 51.1334 32.2618H54.0286C55.1042 32.2618 55.9762 33.1339 55.9762 34.2095V36.9237C55.9762 37.9539 55.1266 38.9125 53.977 38.6904H24.404C23.2544 38.9125 22.4048 37.9539 22.4048 36.9237V34.2095C22.4048 33.1339 23.2768 32.2618 24.3524 32.2618H27.2476C27.5238 32.2618 27.7476 32.4857 27.7476 32.7618C27.7476 33.038 27.5238 33.2618 27.2476 33.2618H24.3524Z" fill="#636677"/>
<path fill-rule="evenodd" clip-rule="evenodd" d="M54.5125 51.36C54.6687 51.2037 54.9219 51.2037 55.0781 51.36L59.2929 55.5747C59.8047 56.0865 59.8047 56.9215 59.2929 57.4333L58.4648 58.2613C57.9541 58.772 57.1215 58.7731 56.6095 58.2645L52.1876 54.0235C52.0281 53.8706 52.0229 53.6173 52.1758 53.4579C52.3287 53.2985 52.5819 53.2932 52.7413 53.4461L57.172 57.6956C57.3714 57.8949 57.6998 57.895 57.8992 57.6956L58.7272 56.8676C58.9266 56.6682 58.9266 56.3397 58.7272 56.1404L54.5125 51.9256C54.3562 51.7694 54.3562 51.5162 54.5125 51.36Z" fill="#636677"/>
<path fill-rule="evenodd" clip-rule="evenodd" d="M49.1851 42.3094C45.9517 42.3094 43.3306 44.9306 43.3306 48.164C43.3306 51.3973 45.9517 54.0185 49.1851 54.0185C52.4184 54.0185 55.0396 51.3973 55.0396 48.164C55.0396 44.9306 52.4184 42.3094 49.1851 42.3094ZM42.3306 48.164C42.3306 44.3783 45.3994 41.3094 49.1851 41.3094C52.9707 41.3094 56.0396 44.3783 56.0396 48.164C56.0396 51.9496 52.9707 55.0185 49.1851 55.0185C45.3994 55.0185 42.3306 51.9496 42.3306 48.164Z" fill="#636677"/>
</svg>
