<svg width="81" height="81" viewBox="0 0 81 81" fill="none" xmlns="http://www.w3.org/2000/svg">
<path fill-rule="evenodd" clip-rule="evenodd" d="M40.5 80C62.3152 80 80 62.3152 80 40.5C80 18.6848 62.3152 1 40.5 1C18.6848 1 1 18.6848 1 40.5C1 62.3152 18.6848 80 40.5 80ZM40.5 81C62.8675 81 81 62.8675 81 40.5C81 18.1325 62.8675 0 40.5 0C18.1325 0 0 18.1325 0 40.5C0 62.8675 18.1325 81 40.5 81Z" fill="#636677"/>
<path fill-rule="evenodd" clip-rule="evenodd" d="M27.9676 22.4C27.4476 22.4 27.02 22.8276 27.02 23.3476V53.0238C27.02 53.5439 27.4476 53.9715 27.9676 53.9715H39.0005C39.2766 53.9715 39.5005 54.1953 39.5005 54.4715C39.5005 54.7476 39.2766 54.9715 39.0005 54.9715H27.9676C26.8953 54.9715 26.02 54.0962 26.02 53.0238V23.3476C26.02 22.2753 26.8953 21.4 27.9676 21.4H44.6207C45.3286 21.4 46.0073 21.6806 46.5097 22.1808L46.5105 22.1816L51.5718 27.2429C52.0731 27.7441 52.3534 28.4234 52.3534 29.1327V38.19C52.3534 38.4661 52.1295 38.69 51.8534 38.69C51.5772 38.69 51.3534 38.4661 51.3534 38.19V29.1327C51.3534 28.6875 51.1777 28.263 50.8647 27.95L45.8042 22.8895C45.804 22.8893 45.8038 22.8891 45.8036 22.8889C45.4883 22.5753 45.0634 22.4 44.6207 22.4H27.9676Z" fill="#636677"/>
<path fill-rule="evenodd" clip-rule="evenodd" d="M44.6191 24.119C44.8953 24.119 45.1191 24.3429 45.1191 24.619V27.6952C45.1191 28.2185 45.5435 28.6428 46.0668 28.6428H49.143C49.4191 28.6428 49.643 28.8667 49.643 29.1428C49.643 29.419 49.4191 29.6428 49.143 29.6428H46.0668C44.9912 29.6428 44.1191 28.7708 44.1191 27.6952V24.619C44.1191 24.3429 44.343 24.119 44.6191 24.119Z" fill="#636677"/>
<path fill-rule="evenodd" clip-rule="evenodd" d="M30.5479 34.5714C30.5479 34.2953 30.7717 34.0714 31.0479 34.0714H47.3336C47.6097 34.0714 47.8336 34.2953 47.8336 34.5714C47.8336 34.8476 47.6097 35.0714 47.3336 35.0714H31.0479C30.7717 35.0714 30.5479 34.8476 30.5479 34.5714Z" fill="#636677"/>
<path fill-rule="evenodd" clip-rule="evenodd" d="M30.5479 38.1906C30.5479 37.9144 30.7717 37.6906 31.0479 37.6906H47.3336C47.6097 37.6906 47.8336 37.9144 47.8336 38.1906C47.8336 38.4667 47.6097 38.6906 47.3336 38.6906H31.0479C30.7717 38.6906 30.5479 38.4667 30.5479 38.1906Z" fill="#636677"/>
<path fill-rule="evenodd" clip-rule="evenodd" d="M30.5479 41.8096C30.5479 41.5334 30.7717 41.3096 31.0479 41.3096H41.3336C41.6097 41.3096 41.8336 41.5334 41.8336 41.8096C41.8336 42.0857 41.6097 42.3096 41.3336 42.3096H31.0479C30.7717 42.3096 30.5479 42.0857 30.5479 41.8096Z" fill="#636677"/>
<path fill-rule="evenodd" clip-rule="evenodd" d="M30.5479 45.4286C30.5479 45.1524 30.7717 44.9286 31.0479 44.9286H39.001C39.2771 44.9286 39.501 45.1524 39.501 45.4286C39.501 45.7047 39.2771 45.9286 39.001 45.9286H31.0479C30.7717 45.9286 30.5479 45.7047 30.5479 45.4286Z" fill="#636677"/>
<path fill-rule="evenodd" clip-rule="evenodd" d="M54.5125 51.3601C54.6687 51.2039 54.9219 51.2039 55.0781 51.3601L59.2929 55.5748C59.8047 56.0866 59.8047 56.9216 59.2929 57.4334L58.4648 58.2614C57.9541 58.7722 57.1215 58.7732 56.6095 58.2646L52.1876 54.0236C52.0281 53.8707 52.0229 53.6175 52.1758 53.458C52.3287 53.2986 52.5819 53.2933 52.7413 53.4462L57.172 57.6957C57.3714 57.8951 57.6998 57.8951 57.8992 57.6958L58.7272 56.8677C58.9266 56.6684 58.9266 56.3399 58.7272 56.1405L54.5125 51.9258C54.3562 51.7696 54.3562 51.5163 54.5125 51.3601Z" fill="#636677"/>
<path fill-rule="evenodd" clip-rule="evenodd" d="M49.1851 42.3096C45.9517 42.3096 43.3306 44.9307 43.3306 48.1641C43.3306 51.3974 45.9517 54.0186 49.1851 54.0186C52.4184 54.0186 55.0396 51.3974 55.0396 48.1641C55.0396 44.9307 52.4184 42.3096 49.1851 42.3096ZM42.3306 48.1641C42.3306 44.3784 45.3994 41.3096 49.1851 41.3096C52.9707 41.3096 56.0396 44.3784 56.0396 48.1641C56.0396 51.9497 52.9707 55.0186 49.1851 55.0186C45.3994 55.0186 42.3306 51.9497 42.3306 48.1641Z" fill="#636677"/>
</svg>
