<svg width="29" height="29" viewBox="0 0 29 29" fill="none" xmlns="http://www.w3.org/2000/svg">
<path fill-rule="evenodd" clip-rule="evenodd" d="M14.4863 2.57141C7.90595 2.57141 2.57153 7.90583 2.57153 14.4862C2.57153 21.0665 7.90595 26.4009 14.4863 26.4009C21.0666 26.4009 26.4011 21.0665 26.4011 14.4862C26.4011 7.90583 21.0666 2.57141 14.4863 2.57141ZM1.57153 14.4862C1.57153 7.35355 7.35367 1.57141 14.4863 1.57141C21.6189 1.57141 27.4011 7.35355 27.4011 14.4862C27.4011 21.6188 21.6189 27.4009 14.4863 27.4009C7.35367 27.4009 1.57153 21.6188 1.57153 14.4862Z" fill="#636677"/>
<path fill-rule="evenodd" clip-rule="evenodd" d="M14.5 19.3856C14.7761 19.3856 15 19.6095 15 19.8856V20.9904C15 21.2665 14.7761 21.4904 14.5 21.4904C14.2239 21.4904 14 21.2665 14 20.9904V19.8856C14 19.6095 14.2239 19.3856 14.5 19.3856Z" fill="#636677"/>
<path fill-rule="evenodd" clip-rule="evenodd" d="M14.5 7.5094C14.7761 7.5094 15 7.73326 15 8.0094V16.2951C15 16.5713 14.7761 16.7951 14.5 16.7951C14.2239 16.7951 14 16.5713 14 16.2951V8.0094C14 7.73326 14.2239 7.5094 14.5 7.5094Z" fill="#636677"/>
</svg>
