<svg width="29" height="29" viewBox="0 0 29 29" fill="none" xmlns="http://www.w3.org/2000/svg">
<path fill-rule="evenodd" clip-rule="evenodd" d="M14.5001 2.57141C7.91214 2.57141 2.57153 7.91201 2.57153 14.5C2.57153 21.0879 7.91214 26.4286 14.5001 26.4286C21.0881 26.4286 26.4287 21.0879 26.4287 14.5C26.4287 7.91201 21.0881 2.57141 14.5001 2.57141ZM1.57153 14.5C1.57153 7.35973 7.35985 1.57141 14.5001 1.57141C21.6404 1.57141 27.4287 7.35973 27.4287 14.5C27.4287 21.6402 21.6404 27.4286 14.5001 27.4286C7.35985 27.4286 1.57153 21.6402 1.57153 14.5Z" fill="#ffffff"/>
<path fill-rule="evenodd" clip-rule="evenodd" d="M21.5616 10.4956C21.7587 10.689 21.7618 11.0056 21.5684 11.2027L13.0619 19.8742L12.3514 19.8776L7.98385 15.5101C7.78859 15.3148 7.78859 14.9983 7.98385 14.803C8.17911 14.6077 8.49569 14.6077 8.69096 14.803L12.7015 18.8136L20.8545 10.5024C21.0479 10.3053 21.3645 10.3022 21.5616 10.4956Z" fill="#ffffff"/>
</svg>
