<svg width="29" height="29" viewBox="0 0 29 29" fill="none" xmlns="http://www.w3.org/2000/svg">
<path fill-rule="evenodd" clip-rule="evenodd" d="M14.4863 2.57141C7.90595 2.57141 2.57153 7.90583 2.57153 14.4862C2.57153 21.0665 7.90595 26.4009 14.4863 26.4009C21.0666 26.4009 26.4011 21.0665 26.4011 14.4862C26.4011 7.90583 21.0666 2.57141 14.4863 2.57141ZM1.57153 14.4862C1.57153 7.35355 7.35367 1.57141 14.4863 1.57141C21.6189 1.57141 27.4011 7.35355 27.4011 14.4862C27.4011 21.6188 21.6189 27.4009 14.4863 27.4009C7.35367 27.4009 1.57153 21.6188 1.57153 14.4862Z" fill="#ffffff"/>
<path fill-rule="evenodd" clip-rule="evenodd" d="M14.5 7.50952C14.7761 7.50952 15 7.73338 15 8.00952V9.11428C15 9.39042 14.7761 9.61428 14.5 9.61428C14.2239 9.61428 14 9.39042 14 9.11428V8.00952C14 7.73338 14.2239 7.50952 14.5 7.50952Z" fill="#ffffff"/>
<path fill-rule="evenodd" clip-rule="evenodd" d="M14.5 12.2047C14.7761 12.2047 15 12.4286 15 12.7047V20.9904C15 21.2666 14.7761 21.4904 14.5 21.4904C14.2239 21.4904 14 21.2666 14 20.9904V12.7047C14 12.4286 14.2239 12.2047 14.5 12.2047Z" fill="#ffffff"/>
</svg>
