<svg xmlns="http://www.w3.org/2000/svg" viewBox="0 0 138 20" width="138" height="20">
	<style>
		tspan { white-space:pre }
		.shp0 { fill: #000000 } 
		.shp1 { fill: #00a4e0 } 
	</style>
	<g id="Artwork">
		<g id="Layer">
			<path id="Layer" class="shp0" d="M9.9 -22.3C11.1 -19 13.8 -15.9 18.8 -15.9C22.9 -15.9 25.6 -18.2 25.6 -22C25.6 -31.6 5.1 -29.5 5.1 -44.1C5.1 -51.2 10.4 -56.4 18.8 -56.4C27.4 -56.4 31.2 -50.3 32.3 -47.1L26.3 -44.4C25.3 -46.6 23.2 -49.7 18.7 -49.7C14.7 -49.7 12.4 -47.2 12.4 -44.1C12.4 -35.1 33 -36.8 33 -22.5C33 -14.9 27.5 -9.2 18.5 -9.2C9.2 -9.2 5.2 -15.4 3.8 -19.5L9.9 -22.3Z" />
			<path id="Layer" fill-rule="evenodd" class="shp0" d="M54.1 -44.8C64.6 -44.8 72.1 -37.2 72.1 -27C72.1 -16.8 64.4 -9.2 54.1 -9.2C43.7 -9.2 36.2 -16.7 36.2 -26.9C36.2 -37.1 43.9 -44.8 54.1 -44.8ZM54.1 -15.5C60.4 -15.5 65 -20.4 65 -27C65 -33.6 60.4 -38.5 54.1 -38.5C47.7 -38.5 43.3 -33.6 43.3 -26.9C43.3 -20.2 47.8 -15.5 54.1 -15.5Z" />
			<path id="Layer" class="shp0" d="M77.8 -38.1L74.1 -38.1L74.1 -44L77.8 -44L77.8 -45.5C77.8 -54.1 83.3 -57 89.4 -57C90.8 -57 91.9 -56.9 91.9 -56.9L91.9 -50.9C91.9 -50.9 91 -51 90.2 -51C86.8 -51 84.9 -49.2 84.9 -45.4L84.9 -44L91.5 -44L91.5 -38.1L84.9 -38.1L84.9 -10L77.8 -10L77.8 -38.1Z" />
			<path id="Layer" class="shp0" d="M97.2 -51L104.2 -51L104.2 -43.9L111.1 -43.9L111.1 -38L104.2 -38L104.2 -22.2C104.2 -16.9 106.2 -15.8 110 -15.8C110.6 -15.8 111.4 -15.9 111.4 -15.9L111.4 -9.8C111.4 -9.8 110.2 -9.5 108 -9.5C99.7 -9.5 97.3 -15 97.3 -23.3L97.3 -38.1L93.5 -38.1L93.5 -44L97.3 -44L97.3 -51L97.2 -51Z" />
			<path id="Layer" class="shp0" d="M115.8 -57L122.9 -57L122.9 -10L115.8 -10L115.8 -57Z" />
			<path id="Layer" fill-rule="evenodd" class="shp0" d="M140.9 -31.6C144.8 -31.6 147.7 -30.3 149 -29.1L149 -32.3C149 -36.2 146.3 -38.5 141.8 -38.5C138 -38.5 134.8 -37.2 132.3 -35.8L129.6 -40.7C132.3 -42.5 136.9 -44.6 142.5 -44.6C152.6 -44.6 156 -39.1 156 -31.7L156 -10L149.8 -10L149.2 -12.5C147.4 -10.5 144.7 -9.1 140.5 -9.1C133.3 -9.1 127.7 -13.6 127.7 -20.4C127.8 -27 133.1 -31.6 140.9 -31.6ZM142.1 -14.8C146.3 -14.8 149.3 -17.1 149.3 -20.6C149.3 -24.2 146.4 -26.5 142.1 -26.5C137.8 -26.5 135 -24 135 -20.6C134.8 -17.3 137.8 -14.8 142.1 -14.8Z" />
			<path id="Layer" fill-rule="evenodd" class="shp0" d="M162.7 -57L169.8 -57L169.8 -39.4C170.7 -40.9 174.3 -44.8 180.8 -44.8C190.5 -44.8 196.9 -37.4 196.9 -26.9C196.9 -16.5 190 -9.2 180.3 -9.2C173.7 -9.2 170.3 -13.3 169.4 -14.5L169.4 -10L162.7 -10L162.7 -57ZM179.6 -15.4C185.4 -15.4 189.7 -19.9 189.7 -26.8C189.7 -33.6 185.5 -38.4 179.6 -38.4C173.9 -38.4 169.5 -34.2 169.5 -26.8C169.5 -20.6 173.4 -15.4 179.6 -15.4Z" />
			<path id="Layer" class="shp0" d="M219.8 -55.5L242.3 -55.5L242.3 -49L227 -49L227 -36.3L240.3 -36.3L240.3 -29.9L227 -29.9L227 -16.5L243 -16.5L243 -10L219.9 -10L219.9 -55.5L219.8 -55.5Z" />
			<path id="Layer" fill-rule="evenodd" class="shp0" d="M261.6 -55.5C271.4 -55.5 276.8 -49.7 276.8 -42.1C276.8 -36.8 274 -32.3 269.4 -30.4L280.5 -10L272.5 -10L262.9 -28.8L256.6 -28.8L256.6 -10L249.4 -10L249.4 -55.5L261.6 -55.5ZM261.5 -35C266 -35 269.4 -37.5 269.4 -42.2C269.4 -46.4 266.8 -49.3 261.5 -49.3L256.6 -49.3L256.6 -35L261.5 -35Z" />
			<path id="Layer" fill-rule="evenodd" class="shp0" d="M298.1 -55.5C306.7 -55.5 312.7 -50 312.7 -41.8C312.7 -33.7 306.5 -28 298.2 -28L292.2 -28L292.2 -10L285 -10L285 -55.5L298.1 -55.5ZM297.3 -34.3C302 -34.3 305.3 -37.3 305.3 -41.8C305.3 -46.3 302 -49.1 297.4 -49.1L292.2 -49.1L292.2 -34.2L297.3 -34.2L297.3 -34.3Z" />
		</g>
		<g id="Layer">
			<g id="Layer">
				<path id="Layer" fill-rule="evenodd" class="shp1" d="M2 5.2L3.6 5.2L3.6 9.2C3.8 8.9 4.6 8 6.1 8C8.3 8 9.8 9.7 9.8 12.1C9.8 14.5 8.2 16.1 6 16.1C4.5 16.1 3.7 15.2 3.5 14.9L3.5 15.9L2 15.9L2 5.2ZM5.8 14.6C7.1 14.6 8.1 13.6 8.1 12C8.1 10.5 7.2 9.4 5.8 9.4C4.5 9.4 3.5 10.4 3.5 12C3.5 13.4 4.4 14.6 5.8 14.6Z" />
				<path id="Layer" class="shp1" d="M12.6 18.5L13.7 15.7L10.6 8.1L12.3 8.1L14.4 13.7L16.5 8.1L18.2 8.1L14.2 18.4L12.6 18.4L12.6 18.5Z" />
			</g>
			<g id="XMLID_114_">
				<path id="XMLID_132_" fill-rule="evenodd" class="shp0" d="M74.2 5.3C74.2 4.7 73.8 4.3 73.2 4.3L68.8 4.3C66.5 4.3 65.4 5.3 65.4 7.7L65.4 12.4C65.4 13.3 65 13.7 64 13.7L58.3 13.7C57.7 13.7 57.3 14.1 57.3 14.7C57.3 15.3 57.7 15.7 58.3 15.7L64 15.7C66.3 15.7 67.4 14.7 67.4 12.3L67.4 7.6C67.4 6.6 67.8 6.3 68.7 6.3L73.1 6.3C73.8 6.3 74.2 5.9 74.2 5.3L74.2 5.3Z" />
				<path id="XMLID_131_" fill-rule="evenodd" class="shp0" d="M39.3 4.3L29.2 4.3C27.2 4.3 25.8 5.6 25.8 7.7L25.8 12.4C25.8 14.4 27.1 15.8 29.2 15.8L37.3 15.8C38 15.8 38.6 15.1 38.6 14.5L38.6 12.1C38.6 11.5 38.2 11.1 37.6 11.1C37 11.1 36.6 11.5 36.6 12.1L36.6 13.8L29.2 13.8C28.5 13.8 27.9 13.1 27.9 12.5L27.9 7.8C27.9 7.1 28.6 6.5 29.2 6.5L39.3 6.5C40 6.5 40.6 7.2 40.6 7.8L40.6 14.9C40.6 15.4 41 15.9 41.6 15.9C42.2 15.9 42.6 15.6 42.6 14.9L42.6 7.8C42.6 5.6 41.3 4.3 39.3 4.3L39.3 4.3Z" />
				<path id="XMLID_130_" fill-rule="evenodd" class="shp0" d="M76.2 12.4C76.2 14.8 77.2 15.8 79.6 15.8C83.7 15.8 87.9 15.8 92 15.8C92.6 15.8 93 15.4 93 14.8C93 14.2 92.6 13.8 92 13.8L79.6 13.8C78.6 13.8 78.3 13.4 78.3 12.5L78.3 7.8C78.3 6.8 78.7 6.5 79.6 6.5L89.7 6.5C90.6 6.5 91 6.9 91 7.8C91 8.8 90.6 9.1 89.7 9.1L81.3 9.1C80.6 9.1 80.3 9.4 80.3 10.1C80.3 10.7 80.6 11.1 81.3 11.1L89.7 11.1C92.1 11.1 93.1 10.1 93.1 7.7C93.1 5.4 92.1 4.3 89.7 4.3L79.6 4.3C77.2 4.3 76.2 5.3 76.2 7.7L76.2 12.4L76.2 12.4Z" />
				<path id="XMLID_129_" fill-rule="evenodd" class="shp0" d="M95 12.4C95 14.8 96 15.8 98.4 15.8C102.5 15.8 105.5 15.8 109.7 15.8C110.3 15.8 110.7 15.4 110.7 14.8C110.7 14.2 110.3 13.8 109.7 13.8L98.4 13.8C97.4 13.8 97.1 13.4 97.1 12.5C97.1 10.9 97.1 9.4 97.1 7.8C97.1 6.8 97.4 6.5 98.4 6.5C102.5 6.5 105.5 6.5 109.7 6.5C110.3 6.5 110.7 6.1 110.7 5.5C110.7 4.9 110.3 4.5 109.7 4.5L98.4 4.5C96 4.5 95 5.5 95 7.9L95 12.4L95 12.4Z" />
				<path id="XMLID_116_" fill-rule="evenodd" class="shp0" d="M112.9 12.3L112.9 7.6C112.9 5.3 113.9 4.3 116.3 4.3L126.4 4.3C128.8 4.3 129.8 5.3 129.8 7.6L129.8 12.3C129.8 14.7 128.8 15.7 126.4 15.7L116.3 15.7C113.9 15.7 112.9 14.7 112.9 12.3ZM116.2 13.7L126.3 13.7C127.3 13.6 127.6 13.3 127.6 12.3C127.6 10.7 127.6 9.2 127.6 7.6C127.6 6.7 127.3 6.3 126.3 6.3L116.2 6.3C115.2 6.3 114.9 6.6 114.9 7.6L114.9 12.3C114.9 13.3 115.2 13.7 116.2 13.7Z" />
				<path id="XMLID_115_" fill-rule="evenodd" class="shp0" d="M61.4 5.3C61.4 4.7 61 4.3 60.4 4.3L56 4.3C53.7 4.3 52.6 5.3 52.6 7.7L52.6 12.4C52.6 13.3 52.2 13.7 51.2 13.7L45.5 13.7C44.9 13.7 44.5 14.1 44.5 14.7C44.5 15.3 44.9 15.7 45.5 15.7L51.2 15.7C53.5 15.7 54.6 14.7 54.6 12.3L54.6 7.6C54.6 6.6 55 6.3 55.9 6.3L60.3 6.3C61.1 6.3 61.4 5.9 61.4 5.3L61.4 5.3Z" />
			</g>
		</g>
	</g>
	<g id="Guides">
	</g>
</svg>