<?xml version="1.0" encoding="utf-8"?>
<!-- Generator: Adobe Illustrator 23.0.1, SVG Export Plug-In . SVG Version: 6.00 Build 0)  -->
<svg version="1.1" id="Warstwa_1" xmlns="http://www.w3.org/2000/svg" xmlns:xlink="http://www.w3.org/1999/xlink" x="0px" y="0px"
	 width="311.2799988px" height="76.0300064px" viewBox="0 0 311.2799988 76.0300064"
	 style="enable-background:new 0 0 311.2799988 76.0300064;" xml:space="preserve">
<style type="text/css">
	.st0{fill-rule:evenodd;clip-rule:evenodd;}
	.st1{fill:#1D1D1B;}
	.st2{fill:#D20A11;}
</style>
<g>
	<g>
		<g>
			<path d="M0,59.1399994h2.0400009v5.0699997c0.2599983-0.4300003,1.3100014-1.5500031,3.1599998-1.5500031
				c2.7900009,0,4.6399994,2.1299973,4.6399994,5.1500015c0,2.9899979-1.9799995,5.1100006-4.7700005,5.1100006
				c-1.8899994,0-2.8800011-1.1800003-3.1500015-1.5199966v1.2699966H0V59.1399994z M4.8699989,71.1200027
				c1.6699982,0,2.9199982-1.2900009,2.9199982-3.2900009c0-1.9700012-1.2000008-3.3499985-2.9000015-3.3499985
				c-1.6300011,0-2.9199982,1.2200012-2.9199982,3.3499985C1.9599991,69.6200027,3.0699997,71.1200027,4.8699989,71.1200027z"/>
			<path d="M13.5499992,76.0299988l1.3899994-3.5199966l-3.8800011-9.5999985h2.1899986l2.6399994,7.1100006l2.5999985-7.1100006
				h2.1300011l-5.1100006,13.1200027C15.5099945,76.0300064,13.5499992,76.0300064,13.5499992,76.0299988z"/>
		</g>
		<g id="XMLID_37_">
			<path id="XMLID_45_" class="st0" d="M91.6499939,59.3199997c0-0.7900009-0.4499969-1.2799988-1.2799988-1.2799988h-5.5399933
				c-2.980011,0-4.2600098,1.2699966-4.2600098,4.2600021v5.9599991c0,1.1800003-0.5299988,1.6999969-1.7399902,1.6999969
				h-7.2100067c-0.769989,0-1.2799988,0.5-1.2799988,1.2900009c0,0.7600021,0.4900055,1.2699966,1.2600098,1.2699966h7.2200012
				c2.9599915,0,4.2899933-1.2799988,4.2899933-4.2600021v-5.9499969c0-1.2699966,0.4600067-1.6999969,1.7100067-1.6999969
				h5.5399933C91.1999969,60.5999985,91.6399994,60.0999985,91.6499939,59.3199997L91.6499939,59.3199997z"/>
			<path id="XMLID_44_" class="st0" d="M47.3400002,58.0400009H34.5600014c-2.5500031,0-4.2600021,1.6999969-4.2600021,4.2600021
				v5.9599991c0,2.5599976,1.6999969,4.2600021,4.2600021,4.2600021h10.2200012
				c0.8499985,0,1.6999969-0.8499985,1.6999969-1.6999969V67.840004c0-0.7399979-0.5500031-1.2799988-1.25-1.2799988
				c-0.7900009,0-1.3000031,0.5-1.3000031,1.2799988v2.1299973h-9.3700027c-0.8499985,0-1.6999969-0.8499985-1.6999969-1.6999969
				v-5.9600067c0-0.8499985,0.8499985-1.6999969,1.6999969-1.7099991h12.7799988
				c0.8499985,0,1.7099991,0.8499985,1.7099991,1.6999969v8.9499969c0,0.6699982,0.5100021,1.2799988,1.2799988,1.2799988
				c0.7200012,0,1.2799988-0.4100037,1.2799988-1.2799988v-8.9399948C51.6000023,59.75,49.8999977,58.0500031,47.3400002,58.0400009
				L47.3400002,58.0400009z"/>
			<path id="XMLID_43_" class="st0" d="M94.1999969,68.2700043c0,2.9800034,1.25,4.2600021,4.2599945,4.2600021
				c5.25,0,10.5099945,0,15.7599945,0c0.7700043,0,1.2799988-0.5,1.2799988-1.2799988
				c0-0.7600021-0.4900055-1.2699966-1.2599945-1.2699966H98.469986c-1.2799988-0.0199966-1.7100067-0.4599991-1.7100067-1.6999969
				v-5.9700165c0-1.2699966,0.4600067-1.6999969,1.7100067-1.6999969h12.7799988
				c1.1999969,0,1.6999969,0.4499969,1.6999969,1.6999969c0,1.2799988-0.4499969,1.6999969-1.6999969,1.6999969h-10.6499939
				c-0.8600006,0-1.2799988,0.4300003-1.2799988,1.2799988c0,0.8199997,0.4299927,1.2799988,1.2799988,1.2799988h10.6399994
				c3.0200043,0,4.2599945-1.2799988,4.2599945-4.2600021s-1.2799988-4.2600021-4.2599945-4.2600021H98.4599915
				c-3.0599976,0-4.2599945,1.2799988-4.2599945,4.2600021V68.2700043L94.1999969,68.2700043z"/>
			<path id="XMLID_42_" class="st0" d="M118.0500031,68.2700043c0,2.9800034,1.25,4.2600021,4.2599945,4.2600021
				c5.25,0,9.0599976,0,14.3199921,0c0.7700043,0,1.2799988-0.5,1.2799988-1.2799988
				c0-0.7600021-0.4400024-1.2699966-1.2599945-1.2699966h-14.3300018
				c-1.2799988-0.0199966-1.7100067-0.4599991-1.7100067-1.6999969c0-1.9899979,0-3.9700012,0-5.9599991
				c0-1.2399979,0.4299927-1.6800003,1.7100067-1.6999969c5.25,0,9.0500031,0,14.3000031,0
				c0.7700043,0,1.2799988-0.4899979,1.2799988-1.2799988c0-0.7699966-0.4900055-1.2799988-1.2599945-1.2799988h-14.3200073
				c-3.0099945,0-4.2599945,1.2799988-4.2599945,4.2600021v5.9499817H118.0500031z"/>
			<path id="XMLID_39_" class="st0" d="M140.7299957,68.25c0,2.9800034,1.25,4.2799988,4.2599945,4.2799988h12.7799988
				c3.0099945,0,4.2599945-1.3000031,4.2599945-4.2799988v-5.9599991c0-2.9800034-1.25-4.2399979-4.2599945-4.2399979h-12.7799988
				c-3,0-4.2599945,1.2600021-4.2599945,4.2399979V68.25L140.7299957,68.25z M144.9799957,69.9700012
				c-1.2799988-0.0199966-1.6999969-0.4800034-1.6999969-1.7200012v-5.9599991c0-1.2399979,0.4299927-1.6600037,1.6999969-1.6800003
				h12.7799988c1.2799988,0.0199966,1.7100067,0.4599991,1.7100067,1.6999969c0,1.9899979,0,3.9599991,0,5.9400024
				c0,1.2399979-0.4299927,1.7099991-1.7100067,1.7300034L144.9799957,69.9700012L144.9799957,69.9700012z"/>
			<path id="XMLID_38_" class="st0" d="M75.4600067,59.3199997c0-0.7900009-0.4499969-1.2799988-1.2799988-1.2799988h-5.5400085
				c-2.9799957,0-4.2599945,1.2699966-4.2599945,4.2600021v5.9599991c0,1.1800003-0.5200005,1.6999969-1.7400017,1.6999969
				h-7.2600021c-0.7699966,0-1.2300034,0.5-1.2300034,1.2900009c0,0.7600021,0.4599991,1.2699966,1.2300034,1.2699966h7.2600021
				c2.9600029,0,4.2900047-1.2799988,4.2900047-4.2600021v-5.9499969c0-1.2699966,0.4599915-1.6999969,1.6999969-1.6999969
				h5.5399933C75.0099945,60.5999985,75.4499969,60.0999985,75.4600067,59.3199997L75.4600067,59.3199997z"/>
		</g>
	</g>
	<g>
		<path class="st1" d="M28.329998,11.1100006l-8.1300011,25.7799988h-8.2700005L0.4799995,0.9000015h8.1300011l7.8600006,27.5699997
			c0,0,0.0699997-0.1399994,8.2700005-27.5699997h7.1699982c8.1299973,27.4300003,8.1999969,27.5699997,8.1999969,27.5699997
			l7.9300003-27.5699997h8.1299973L44.7299995,36.8799973h-8.3399963L28.329998,11.1100006z"/>
		<path class="st1" d="M70.9900055,13.9300003c4.1399994,0,7.2399902,1.3800011,8.6199951,2.6199989v-3.3800011
			c0-4.1399994-2.8999939-6.6199989-7.6499939-6.6199989c-4,0-7.4400024,1.3800011-10.0600014,2.829998L59.010006,4.1399994
			C61.9000053,2.2799988,66.730011,0,72.730011,0c10.6799927,0,14.3399963,5.7900009,14.3399963,13.6500015v23.2300034h-6.5500031
			l-0.6199951-2.6900024c-1.8600006,2.0699997-4.7600098,3.5800018-9.2400055,3.5800018
			c-7.579998,0-13.579998-4.7600021-13.579998-11.9899979C57.0600014,18.8199997,62.7199974,13.9300003,70.9900055,13.9300003z
			 M72.2299957,31.7799988c4.4100037,0,7.5800018-2.4800034,7.5800018-6.2000008
			c0-3.7900009-3.0999908-6.2000008-7.6499939-6.2000008s-7.5800018,2.6199989-7.5800018,6.2000008
			C64.5800018,29.1600037,67.6800079,31.7799988,72.2299957,31.7799988z"/>
		<path class="st1" d="M94.0500031,0.9000015h7.1000061v4.7600021c0.9600067-1.3100014,4.6199951-5.6500015,11.5800018-5.6500015
			c10.2700043,0,17.5800018,7.8600006,17.5800018,18.8199997c0,11.1699982-6.8200073,18.9499969-17.0899963,18.9499969
			c-6.8200073,0-10.6799927-4.1399994-11.6499939-5.6500015v17.6399994h-7.5099945V0.9000015H94.0500031z M112.0399933,31.090004
			c6.2700043,0,10.6799927-5.0299988,10.6799927-12.2700005c0-7.3800011-4.6199951-12.1300011-10.75-12.1300011
			c-6.6199951,0-10.6799927,5.5100021-10.6799927,12.1300011C101.2899933,26.6100006,106.0500031,31.090004,112.0399933,31.090004z"
			/>
		<path class="st1" d="M153.2200012,7.5900002c-7.8600006,0-10.1300049,6-10.1300049,13.7799988v15.5099983h-7.5099945V0.9000015
			h7.3699951v5.6500015c1.3800049-3.5800018,5.1699982-6.5499992,10.2700043-6.5499992V7.5900002z"/>
		<path class="st1" d="M173.3499908,0.0100021c11.1000061,0,19.0899963,8.0600014,19.0899963,18.8899994
			c0,10.8199997-8.1300049,18.8899994-19.0899963,18.8899994c-11.0299988,0-19.0200043-7.9300003-19.0200043-18.8199997
			C154.3300018,8.0699997,162.5299988,0.0100021,173.3499908,0.0100021z M173.3499908,31.090004
			c6.6900024,0,11.5800018-5.1699982,11.5800018-12.2000008s-4.8899994-12.2000008-11.5800018-12.2000008
			c-6.75,0-11.4400024,5.2399979-11.4400024,12.2700005C161.9100037,26.0600014,166.6699982,31.090004,173.3499908,31.090004z"/>
		<path class="st2" d="M231.3199921,0.0100021c10.8900146,0,17.2999878,7.5100021,17.2999878,18.8199997
			c0,0.6199989,0,1.2400017-0.0700073,1.8600006h-27.0899963c0.1400146,6.4099998,4.7600098,10.5500031,11.1700134,10.5500031
			c5.4500122,0,8.5499878-3.0299988,9.9299927-5.0299988l4.9599915,3.7200012
			c-1.7200012,2.9599991-6.480011,7.8600006-15.0299988,7.8600006c-11.230011,0-18.6799927-7.8600006-18.6799927-18.75
			C213.8099976,7.8699989,221.4600067,0.0100021,231.3199921,0.0100021z M240.969986,15.5200005
			c-0.2799988-5.9300003-4.4100037-9.2400017-9.5799866-9.2400017c-5.1700134,0-9.1700134,3.5800018-9.6499939,9.2399979
			C221.7400055,15.5199966,240.969986,15.5199966,240.969986,15.5200005z"/>
		<path class="st2" d="M271.4000244,7.5900002c-7.8599854,0-10.1300049,6-10.1300049,13.7799988v15.5099983h-7.510025V0.9000015
			h7.3700104v5.6500015c1.3800049-3.5800018,5.1700134-6.5499992,10.269989-6.5499992v7.5899963H271.4000244z"/>
		<path class="st2" d="M275.0200195,0.9000015h7.1000061v4.7600021c0.9599915-1.3100014,4.6199951-5.6500015,11.5799866-5.6500015
			c10.269989,0,17.5799866,7.8600006,17.5799866,18.8199997c0,11.1699982-6.8200073,18.9499969-17.0899963,18.9499969
			c-6.8200073,0-10.6799927-4.1399994-11.6499939-5.6500015v17.6399994h-7.5100098V0.9000015H275.0200195z M293.0100098,31.090004
			c6.269989,0,10.6799927-5.0299988,10.6799927-12.2700005c0-7.3800011-4.6199951-12.1300011-10.75-12.1300011
			c-6.6199951,0-10.6799927,5.5100021-10.6799927,12.1300011C282.2600098,26.6100006,287.0100098,31.090004,293.0100098,31.090004z"
			/>
	</g>
	<g id="Warstwa_3">
	</g>
</g>
</svg>
